<svg xmlns="http://www.w3.org/2000/svg" data-name="Layer 1" width="672.09888" height="425.71223" viewBox="0 0 672.09888 425.71223" xmlns:xlink="http://www.w3.org/1999/xlink"><path d="M771.74412,335.41492c.82059-24.05881-5.11152-45.89094-10.52883-41.77334s-9.2871,28.67486-9.35235,53.00463c-.07621,28.4112,4.07768,55.72225,2.87458,83.63188-2.302,53.40135-21.52968,65.49965-23.58894,119.09485-.93232,24.26477,2.49162,49.17348,7.35446,61.10827s10.82555,12.47656,16.2238,6.5786,10.35891-17.70577,15.224-29.62236c6.09172-14.921,12.213-30.43924,17.19658-51.95945,5.59181-24.14647,9.61626-56.08483,10.54418-90.41976s-1.4428-70.8365-6.90962-95.53741-14.07785-35.921-21.50751-25.23891" transform="translate(-263.95056 -237.14388)" fill="#36b3ff"/><path d="M589.77261,465.42487c.82059-13.09587-5.11152-24.97971-10.52883-22.73838s-9.2871,15.60851-9.35235,28.85188c-.07621,15.465,4.07767,30.33117,2.87458,45.52315-2.302,29.06783-21.52968,35.65327-23.58894,64.82662-.93232,13.208,2.49162,26.76648,7.35446,33.26292s10.82555,6.79133,16.2238,3.58091,10.35891-9.63774,15.224-16.12427c6.09172-8.12192,12.213-16.56892,17.19658-28.283,5.59181-13.14359,9.61626-30.52853,10.54418-49.218s-1.4428-38.55826-6.90962-52.00365-14.07785-19.55277-21.50751-13.73824" transform="translate(-263.95056 -237.14388)" fill="#36b3ff"/><path d="M437.84074,568.15456c.82059-6.54794-5.11151-12.48986-10.52883-11.36919s-9.28709,7.80425-9.35235,14.42594c-.0762,7.7325,4.07768,15.16558,2.87458,22.76157-2.302,14.53392-21.52968,17.82664-23.58894,32.41331a17.79356,17.79356,0,0,0,7.35447,16.63146c4.86284,3.24822,10.82555,3.39567,16.2238,1.79046s10.3589-4.81887,15.224-8.06214c6.09172-4.061,12.213-8.28446,17.19659-14.14148a45.40986,45.40986,0,0,0,10.54417-24.609c.92792-9.34472-1.4428-19.27913-6.90962-26.00182s-14.07785-9.77639-21.50751-6.86912" transform="translate(-263.95056 -237.14388)" fill="#36b3ff"/><path d="M936.04944,631.48888c-790.94985-22.727-638.63861,207.9749-672.09888-394.345.30594,123.13385,1.60367,267.2574,3.34451,397.40506-.78781,11.25916,2.18448,25.82429,15.25143,28.30718C495.59673,658.20016,763.69894,641.53868,936.04944,631.48888Z" transform="translate(-263.95056 -237.14388)"/><path d="M430.62952,655.817c.56-46.09337,2.42219-92.15586,3.72015-138.24121-15.61187,6.98886-31.9591,13.16479-48.86671,15.93194-22.419.14119-.77912,39.24594-4.95817,56.01415.258,50.18982.37071,56.70512,6.24735,1.6812a340.57727,340.57727,0,0,0-.23013-46.51986,140.97561,140.97561,0,0,0,19.26671-3.47315c5.30277-1.44895,10.88352-2.866,15.83994-5.136C421.84168,574.66312,424.34166,619.93331,430.62952,655.817Z" transform="translate(-263.95056 -237.14388)"/><path d="M592.62805,650.31993c-11.19626-70.56532-9.70707-142.37183-6.19481-213.58545-4.67494-20.56405,19.83955-88.88311-11.1798-76.79043-19.45533,3.30212-39.77929,4.83072-59.09955,6.15268,5.07393,41.297,10.16352,83.22373,13.63512,124.42342,4.238,48.7114,7.03435,97.03172,7.90252,146.26316,2.22607-49.59912,2.37646-103.79932-.45166-159.48779-1.62621-33.024-4.30916-66.77264-7.93407-100.01953a450.19394,450.19394,0,0,0,48.0073-5.23349C574.21739,463.16257,570.63653,561.62009,592.62805,650.31993Z" transform="translate(-263.95056 -237.14388)"/><path d="M797.97815,644.86241C784.359,527.85036,753.23436,406.78668,782.1199,289.925c15.84758-39.97212-8.79519-9.92452-43.85258-11.39873-13.13723,1.12207-26.30641.18654-39.34434-1.30521-1.1083-.42755.69145,6.3866.42995,6.95095,20.68365,87.47082,19.48865,480.06573,24.17581,249.54352a1808.87271,1808.87271,0,0,0-11.45925-243.06894,184.39888,184.39888,0,0,0,55.17623-4.00011C747.92646,394.19511,773.22783,531.68446,797.97815,644.86241Z" transform="translate(-263.95056 -237.14388)"/></svg>